<svg width="1367" height="164" viewBox="0 0 1367 164" fill="none" xmlns="http://www.w3.org/2000/svg">
<g clip-path="url(#clip0_258_14804)">
<rect width="1367" height="164" rx="10" fill="#3563E9"/>
<path d="M17.5752 250.211L-28.1702 140.422H17.5752H63.3206L109.066 250.211L63.3206 360H17.5752H-28.1702L17.5752 250.211Z" fill="white" fill-opacity="0.06"/>
<path d="M184.088 250.211L138.343 140.422H184.088H229.834L275.579 250.211L229.834 360H184.088H138.343L184.088 250.211Z" fill="white" fill-opacity="0.06"/>
<path d="M350.602 250.211L304.856 140.422H350.602H396.347L442.092 250.211L396.347 360H350.602H304.856L350.602 250.211Z" fill="white" fill-opacity="0.06"/>
<path d="M517.115 250.211L471.369 140.422H517.115H562.86L608.606 250.211L562.86 360H517.115H471.369L517.115 250.211Z" fill="white" fill-opacity="0.06"/>
<path d="M683.628 250.211L637.883 140.422H683.628H729.373L775.119 250.211L729.373 360H683.628H637.883L683.628 250.211Z" fill="white" fill-opacity="0.06"/>
<path d="M850.141 250.211L804.396 140.422H850.141H895.887L941.632 250.211L895.887 360H850.141H804.396L850.141 250.211Z" fill="white" fill-opacity="0.06"/>
<path d="M1016.65 250.211L970.909 140.422H1016.65H1062.4L1108.15 250.211L1062.4 360H1016.65H970.909L1016.65 250.211Z" fill="white" fill-opacity="0.06"/>
<path d="M1183.17 250.211L1137.42 140.422H1183.17H1228.91L1274.66 250.211L1228.91 360H1183.17H1137.42L1183.17 250.211Z" fill="white" fill-opacity="0.06"/>
<path d="M99.9168 30.6332L54.1714 -79.1558H99.9168H145.662L191.408 30.6332L145.662 140.422H99.9168H54.1714L99.9168 30.6332Z" fill="white" fill-opacity="0.06"/>
<path d="M266.43 30.6332L220.685 -79.1558H266.43H312.175L357.921 30.6332L312.175 140.422H266.43H220.685L266.43 30.6332Z" fill="white" fill-opacity="0.06"/>
<path d="M432.943 30.6332L387.198 -79.1558H432.943H478.689L524.434 30.6332L478.689 140.422H432.943H387.198L432.943 30.6332Z" fill="white" fill-opacity="0.06"/>
<path d="M599.456 30.6332L553.711 -79.1558H599.456H645.202L690.947 30.6332L645.202 140.422H599.456H553.711L599.456 30.6332Z" fill="white" fill-opacity="0.06"/>
<path d="M765.97 30.6332L720.224 -79.1558H765.97H811.715L857.461 30.6332L811.715 140.422H765.97H720.224L765.97 30.6332Z" fill="white" fill-opacity="0.06"/>
<path d="M932.483 30.6332L886.738 -79.1558H932.483H978.228L1023.97 30.6332L978.228 140.422H932.483H886.738L932.483 30.6332Z" fill="white" fill-opacity="0.06"/>
<path d="M1099 30.6332L1053.25 -79.1558H1099H1144.74L1190.49 30.6332L1144.74 140.422H1099H1053.25L1099 30.6332Z" fill="white" fill-opacity="0.06"/>
<path d="M1265.51 30.6332L1219.76 -79.1558H1265.51H1311.25L1357 30.6332L1311.25 140.422H1265.51H1219.76L1265.51 30.6332Z" fill="white" fill-opacity="0.06"/>
</g>
<defs>
<clipPath id="clip0_258_14804">
<rect width="1367" height="164" rx="10" fill="white"/>
</clipPath>
</defs>
</svg>
