<svg width="177" height="34" viewBox="0 0 177 34" fill="none" xmlns="http://www.w3.org/2000/svg">
<path d="M4.10212 11.1256C3.0699 10.8783 2.09584 10.7038 1.15085 10.4275C0.540238 10.2529 -0.0413068 9.86027 0.00230809 9.16219C0.0604613 8.43502 0.685628 8.10052 1.33985 7.98418C2.154 7.83874 2.98266 7.78057 3.79681 7.78057C4.42195 7.78057 4.79996 8.12961 4.75634 8.8277C4.7418 9.14765 4.75634 9.46761 4.75634 9.78757C4.81449 9.80211 4.87264 9.83119 4.93079 9.84573C5.06164 9.61303 5.1925 9.39488 5.3088 9.16219C6.31195 7.11157 7.31509 5.06094 8.28916 2.99578C9.13238 1.1924 10.528 0.377992 12.5198 0.377992C18.466 0.392535 24.4121 0.421608 30.3583 0.363434C32.6553 0.334347 34.1383 1.29421 35.0687 3.35937C35.941 5.32273 36.9151 7.22792 37.8601 9.16219C37.9764 9.40943 38.1218 9.64212 38.2526 9.88936C38.3253 9.88936 38.3835 9.87481 38.4561 9.86026C38.4561 9.48214 38.4561 9.10401 38.4561 8.72588C38.4561 8.18778 38.7614 7.79512 39.2412 7.80966C40.2153 7.82421 41.2184 7.88237 42.1779 8.11506C42.585 8.21687 43.0793 8.72589 43.1956 9.14765C43.341 9.71484 42.8322 10.1657 42.2943 10.3402C41.2766 10.6602 40.2298 10.8929 39.1249 11.1692C39.4447 11.3873 39.8082 11.6782 40.2007 11.8818C41.3493 12.4926 41.9599 13.4525 41.9889 14.7178C42.0471 17.5246 42.1198 20.3315 42.0616 23.1384C42.0326 24.5491 41.8145 25.9598 41.5964 27.356C41.4074 28.5631 41.1167 28.8248 39.9536 28.883C38.3834 28.9557 36.7988 28.9557 35.2141 28.9557C25.0954 28.9557 14.9622 28.9703 4.84357 28.9848C4.27657 28.9848 3.70958 28.9412 3.14259 28.8976C2.12491 28.8103 1.80506 28.5776 1.61606 27.5741C1.39799 26.3234 1.22352 25.0581 1.13629 23.7928C0.932758 20.7824 0.860079 17.7573 1.19446 14.7468C1.33984 13.4816 1.83414 12.5653 2.93905 11.9545C3.34612 11.7364 3.70958 11.4455 4.11665 11.1837L4.10212 11.1256ZM35.941 9.39489C35.8974 9.17674 35.8829 9.04584 35.8392 8.91495C35.2868 7.4897 34.6471 6.09353 34.1819 4.63919C33.6876 3.09759 32.699 2.58858 31.1288 2.60313C27.3053 2.63222 23.4817 2.50133 19.6581 2.51587C16.6196 2.51587 13.5811 2.66129 10.5426 2.77764C10.2809 2.77764 9.88836 2.96671 9.80113 3.17032C8.87068 5.19185 7.99838 7.24245 7.0534 9.38033H11.0514C11.2986 8.43501 11.4294 7.50425 11.8074 6.68982C12.2581 5.71541 13.2613 5.52635 14.2353 5.62816C14.8169 5.68633 15.4856 5.83176 15.9363 6.16625C16.9249 6.92251 16.7941 8.17323 17.0121 9.29307H26.1858C26.273 8.74042 26.3167 8.20232 26.433 7.67876C26.7673 6.09353 27.5379 5.55543 29.3552 5.59906C30.7799 5.62815 31.565 6.34077 31.8121 7.8242C31.8994 8.34776 31.9721 8.87132 32.0447 9.40942H35.941V9.39489ZM21.5626 20.7387C18.117 20.7387 14.6715 20.7387 11.2259 20.7387C9.96105 20.7387 9.67029 21.175 10.2373 22.3094C10.877 23.5892 11.6039 24.84 12.3308 26.0762C12.6216 26.5706 13.0577 26.847 13.6683 26.847C18.9312 26.847 24.194 26.8469 29.4424 26.8324C29.8204 26.8324 30.3874 26.6579 30.5473 26.3816C31.4487 24.869 32.2919 23.3274 33.077 21.7422C33.3386 21.2186 33.0479 20.8405 32.4373 20.7678C32.0593 20.7242 31.6813 20.7242 31.3033 20.7242C28.0467 20.7242 24.7901 20.7242 21.5336 20.7242L21.5626 20.7387ZM35.563 18.8481C36.5662 18.7754 37.4094 18.7317 38.2526 18.6299C39.0813 18.5281 39.7937 18.2082 40.0408 17.2919C40.5351 15.4595 39.2994 14.0197 37.3803 14.456C35.8392 14.805 34.3563 15.474 32.8734 16.0848C32.2773 16.3321 31.9721 16.9284 32.0884 17.6119C32.1901 18.2373 32.6844 18.5136 33.2369 18.6154C34.051 18.7463 34.8652 18.7899 35.5485 18.8626L35.563 18.8481ZM7.56224 18.8481C8.24555 18.7754 9.10329 18.7317 9.93197 18.6009C10.528 18.4991 11.095 18.15 11.066 17.5246C11.0369 17.0447 10.7607 16.3757 10.3827 16.1721C8.79798 15.285 7.14062 14.5287 5.29425 14.4124C3.94219 14.3251 3.15713 15.0668 3.05536 16.3321C2.95359 17.7137 3.54965 18.47 4.93079 18.6445C5.74494 18.7463 6.57364 18.7754 7.56224 18.8481Z" fill="#3563E9"/>
<path d="M35.432 29.5668C37.6127 29.3341 39.8371 29.9595 41.9015 28.8105C41.9015 29.8722 41.9451 30.9921 41.8724 32.0974C41.8724 32.301 41.3927 32.65 41.1164 32.65C39.4736 32.7082 37.8162 32.7082 36.1734 32.65C35.9263 32.65 35.4901 32.2719 35.461 32.0392C35.3738 31.2248 35.432 30.4103 35.432 29.5814V29.5668Z" fill="#3563E9"/>
<path d="M1.22339 28.6504C2.16838 29.4794 3.21514 29.5085 4.24736 29.523C5.38135 29.5521 6.50079 29.523 7.73654 29.523C7.73654 30.3956 7.79469 31.2391 7.70746 32.0681C7.67838 32.3008 7.2277 32.6353 6.96601 32.6498C5.32319 32.708 3.66581 32.6789 2.02298 32.6644C1.47052 32.6644 1.23792 32.3008 1.23792 31.7772C1.23792 30.7883 1.23792 29.7993 1.23792 28.6359L1.22339 28.6504Z" fill="#3563E9"/>
<path d="M21.4024 22.4695C18.4802 22.4695 15.558 22.4695 12.6213 22.4695C12.2869 22.4695 11.8508 22.5859 11.8217 22.0332C11.7926 21.4515 12.2288 21.4951 12.6068 21.4951C18.4512 21.4951 24.3101 21.4951 30.1545 21.5097C30.4162 21.5097 30.8523 21.6987 30.9105 21.8878C31.0704 22.4259 30.6488 22.4695 30.2272 22.4695C27.8284 22.4695 25.415 22.4695 23.0162 22.4695C22.4783 22.4695 21.9258 22.4695 21.3879 22.4695H21.4024Z" fill="#3563E9"/>
<path d="M21.4752 23.2984C24.0776 23.2984 26.6654 23.2984 29.2678 23.2984C29.4858 23.2984 29.7185 23.2548 29.8929 23.3275C30.0528 23.3857 30.2564 23.5893 30.2564 23.7202C30.2564 23.9092 30.0964 24.1274 29.9365 24.2292C29.8057 24.3164 29.5731 24.2728 29.3841 24.2728C24.0921 24.2728 18.8147 24.2728 13.5228 24.2728C13.3047 24.2728 13.0576 24.331 12.8976 24.2292C12.7377 24.1419 12.5778 23.8947 12.5632 23.7202C12.5632 23.5893 12.7668 23.4002 12.9267 23.3129C13.0575 23.2402 13.2465 23.2984 13.421 23.2984C16.1106 23.2984 18.8002 23.2984 21.4898 23.2984H21.4752Z" fill="#3563E9"/>
<path d="M21.4751 25.131C23.8885 25.131 26.2873 25.131 28.7007 25.131C29.0787 25.131 29.5293 25.0583 29.5148 25.6255C29.5148 26.12 29.0932 26.1055 28.7297 26.1055C23.8885 26.1055 19.0472 26.1055 14.2205 26.1055C14.0606 26.1055 13.8425 26.1491 13.7408 26.0764C13.5663 25.9455 13.3627 25.7419 13.3191 25.5383C13.3046 25.4365 13.5954 25.1747 13.7698 25.1601C14.1914 25.102 14.613 25.131 15.0347 25.131C17.1863 25.131 19.3234 25.131 21.4751 25.131Z" fill="#3563E9"/>
<path d="M73.9441 25.6691C73.6533 30.5702 71.2109 33.0135 66.6459 33.0135H59.304C57.3123 33.0135 55.5822 32.3009 54.1284 30.8611C52.6745 29.4213 51.9476 27.6906 51.9476 25.6691V7.35895C51.9476 5.36651 52.66 3.63585 54.0848 2.18151C55.5095 0.727169 57.2396 0 59.304 0H66.6459C71.2545 0 73.6824 2.44329 73.9441 7.34441H70.295C70.0042 4.88658 68.783 3.6504 66.6459 3.6504H62.9531C61.95 3.6504 61.0922 4.01397 60.3798 4.7266C59.6675 5.43923 59.304 6.31183 59.304 7.34441V25.6545C59.304 26.658 59.6675 27.5161 60.3798 28.2578C61.0922 28.985 61.95 29.3631 62.9531 29.3631H66.6459C68.8121 29.3631 70.0333 28.1269 70.295 25.6691H73.9441Z" fill="#231F20"/>
<path d="M88.6279 33.0137H81.286V7.35914H88.6279V14.6599C88.9186 12.2312 89.6746 10.3987 90.8958 9.17706C92.117 7.95542 93.8035 7.3446 95.9697 7.3446H99.6188V14.6454H92.277C91.2738 14.6454 90.4161 15.009 89.7037 15.7216C88.9913 16.4342 88.6279 17.3068 88.6279 18.3394V32.9991V33.0137Z" fill="#231F20"/>
<path d="M125.279 22.0188H110.624V25.6692C110.624 26.6727 110.988 27.5308 111.7 28.2725C112.412 28.9997 113.27 29.3778 114.273 29.3778H117.966C120.394 29.3778 121.615 28.1416 121.615 25.6838H125.264C124.712 30.5849 122.269 33.0282 117.966 33.0282H110.624C108.632 33.0282 106.902 32.3156 105.449 30.8758C103.995 29.436 103.268 27.7053 103.268 25.6838V14.689C103.268 12.6965 103.995 10.9804 105.449 9.5406C106.902 8.1008 108.618 7.38818 110.624 7.38818H117.966C119.958 7.38818 121.673 8.1008 123.113 9.5406C124.552 10.9804 125.264 12.6965 125.264 14.689V22.0334L125.279 22.0188ZM110.624 18.3684H117.966V14.6744C117.966 13.6709 117.603 12.8129 116.89 12.1002C116.178 11.3876 115.306 11.024 114.273 11.024C113.241 11.024 112.412 11.3876 111.7 12.1002C110.988 12.8129 110.624 13.6709 110.624 14.6744V18.3684Z" fill="#231F20"/>
<path d="M132.621 33.0135V7.35901H139.963V11.0094C140.108 9.77323 140.486 8.85699 141.111 8.26071C141.722 7.66443 142.565 7.35901 143.612 7.35901H147.305C149.296 7.35901 151.012 8.07165 152.451 9.51145C153.89 10.9512 154.603 12.6674 154.603 14.6598V33.0135H147.305V14.6598C147.305 13.6563 146.941 12.7982 146.229 12.0856C145.516 11.373 144.644 11.0094 143.612 11.0094C142.58 11.0094 141.751 11.373 141.039 12.0856C140.326 12.7982 139.963 13.6563 139.963 14.6598V33.0135H132.621Z" fill="#231F20"/>
<path d="M165.666 0.0145264H172.965V7.35892H176.657V11.0093H172.965V25.6691C172.965 26.8762 173.357 27.7924 174.157 28.4178C174.942 29.0431 175.669 29.3631 176.308 29.3631H176.657V33.0135H172.965C170.973 33.0135 169.257 32.3008 167.818 30.861C166.379 29.4212 165.666 27.6906 165.666 25.6691V11.0093H161.974V7.35892H165.666V0.0145264Z" fill="#231F20"/>
</svg>
