<svg width="380" height="841" viewBox="0 0 380 841" fill="none" xmlns="http://www.w3.org/2000/svg">
<path d="M-112.934 700.833L-172.101 560.667H-112.934H-53.7673L5.3994 700.833L-53.7673 841H-112.934H-172.101L-112.934 700.833Z" fill="white" fill-opacity="0.06"/>
<path d="M-54.0986 561.167L4.85547 700.833L-54.0986 840.5H-171.347L-112.474 701.028L-112.392 700.834L-112.474 700.639L-171.347 561.167H-54.0986Z" stroke="black" stroke-opacity="0.2"/>
<path d="M-54.0986 561.167L4.85547 700.833L-54.0986 840.5H-171.347L-112.474 701.028L-112.392 700.834L-112.474 700.639L-171.347 561.167H-54.0986Z" stroke="black" stroke-opacity="0.2"/>
<path d="M-54.0986 561.167L4.85547 700.833L-54.0986 840.5H-171.347L-112.474 701.028L-112.392 700.834L-112.474 700.639L-171.347 561.167H-54.0986Z" stroke="black" stroke-opacity="0.2"/>
<path d="M102.433 700.833L43.2666 560.667H102.433H161.6L220.767 700.833L161.6 841H102.433H43.2666L102.433 700.833Z" fill="white" fill-opacity="0.06"/>
<path d="M161.269 561.167L220.223 700.833L161.269 840.5H44.0205L102.894 701.028L102.976 700.834L102.894 700.639L44.0205 561.167H161.269Z" stroke="black" stroke-opacity="0.2"/>
<path d="M161.269 561.167L220.223 700.833L161.269 840.5H44.0205L102.894 701.028L102.976 700.834L102.894 700.639L44.0205 561.167H161.269Z" stroke="black" stroke-opacity="0.2"/>
<path d="M161.269 561.167L220.223 700.833L161.269 840.5H44.0205L102.894 701.028L102.976 700.834L102.894 700.639L44.0205 561.167H161.269Z" stroke="black" stroke-opacity="0.2"/>
<path d="M317.799 700.833L258.633 560.667H317.799H376.966L436.133 700.833L376.966 841H317.799H258.633L317.799 700.833Z" fill="white" fill-opacity="0.06"/>
<path d="M376.635 561.167L435.589 700.833L376.635 840.5H259.387L318.26 701.028L318.342 700.834L318.26 700.639L259.387 561.167H376.635Z" stroke="black" stroke-opacity="0.2"/>
<path d="M376.635 561.167L435.589 700.833L376.635 840.5H259.387L318.26 701.028L318.342 700.834L318.26 700.639L259.387 561.167H376.635Z" stroke="black" stroke-opacity="0.2"/>
<path d="M376.635 561.167L435.589 700.833L376.635 840.5H259.387L318.26 701.028L318.342 700.834L318.26 700.639L259.387 561.167H376.635Z" stroke="black" stroke-opacity="0.2"/>
<path d="M-6.43392 420.5L-65.6006 280.333H-6.43392H52.7327L111.899 420.5L52.7327 560.667H-6.43392H-65.6006L-6.43392 420.5Z" fill="white" fill-opacity="0.06"/>
<path d="M52.4014 280.833L111.355 420.499L52.4014 560.166H-64.8467L-5.97363 420.695L-5.8916 420.5L-5.97363 420.306L-64.8467 280.833H52.4014Z" stroke="black" stroke-opacity="0.2"/>
<path d="M52.4014 280.833L111.355 420.499L52.4014 560.166H-64.8467L-5.97363 420.695L-5.8916 420.5L-5.97363 420.306L-64.8467 280.833H52.4014Z" stroke="black" stroke-opacity="0.2"/>
<path d="M52.4014 280.833L111.355 420.499L52.4014 560.166H-64.8467L-5.97363 420.695L-5.8916 420.5L-5.97363 420.306L-64.8467 280.833H52.4014Z" stroke="black" stroke-opacity="0.2"/>
<path d="M208.933 420.5L149.767 280.333H208.933H268.1L327.267 420.5L268.1 560.667H208.933H149.767L208.933 420.5Z" fill="white" fill-opacity="0.06"/>
<path d="M267.769 280.833L326.723 420.499L267.769 560.166H150.521L209.394 420.695L209.476 420.5L209.394 420.306L150.521 280.833H267.769Z" stroke="black" stroke-opacity="0.2"/>
<path d="M267.769 280.833L326.723 420.499L267.769 560.166H150.521L209.394 420.695L209.476 420.5L209.394 420.306L150.521 280.833H267.769Z" stroke="black" stroke-opacity="0.2"/>
<path d="M267.769 280.833L326.723 420.499L267.769 560.166H150.521L209.394 420.695L209.476 420.5L209.394 420.306L150.521 280.833H267.769Z" stroke="black" stroke-opacity="0.2"/>
<path d="M424.299 420.5L365.133 280.333H424.299H483.466L542.633 420.5L483.466 560.667H424.299H365.133L424.299 420.5Z" fill="white" fill-opacity="0.06"/>
<path d="M483.135 280.833L542.089 420.499L483.135 560.166H365.887L424.76 420.695L424.842 420.5L424.76 420.306L365.887 280.833H483.135Z" stroke="black" stroke-opacity="0.2"/>
<path d="M483.135 280.833L542.089 420.499L483.135 560.166H365.887L424.76 420.695L424.842 420.5L424.76 420.306L365.887 280.833H483.135Z" stroke="black" stroke-opacity="0.2"/>
<path d="M483.135 280.833L542.089 420.499L483.135 560.166H365.887L424.76 420.695L424.842 420.5L424.76 420.306L365.887 280.833H483.135Z" stroke="black" stroke-opacity="0.2"/>
<path d="M-115.3 140.167L-174.467 0H-115.3H-56.1335L3.03319 140.167L-56.1335 280.333H-115.3H-174.467L-115.3 140.167Z" fill="white" fill-opacity="0.06"/>
<path d="M-56.4648 0.5L2.48926 140.166L-56.4648 279.833H-173.713L-114.84 140.361L-114.758 140.167L-114.84 139.973L-173.713 0.5H-56.4648Z" stroke="black" stroke-opacity="0.2"/>
<path d="M-56.4648 0.5L2.48926 140.166L-56.4648 279.833H-173.713L-114.84 140.361L-114.758 140.167L-114.84 139.973L-173.713 0.5H-56.4648Z" stroke="black" stroke-opacity="0.2"/>
<path d="M-56.4648 0.5L2.48926 140.166L-56.4648 279.833H-173.713L-114.84 140.361L-114.758 140.167L-114.84 139.973L-173.713 0.5H-56.4648Z" stroke="black" stroke-opacity="0.2"/>
<path d="M100.066 140.167L40.8994 0H100.066H159.233L218.399 140.167L159.233 280.333H100.066H40.8994L100.066 140.167Z" fill="white" fill-opacity="0.06"/>
<path d="M158.901 0.5L217.855 140.166L158.901 279.833H41.6533L100.526 140.361L100.608 140.167L100.526 139.973L41.6533 0.5H158.901Z" stroke="black" stroke-opacity="0.2"/>
<path d="M158.901 0.5L217.855 140.166L158.901 279.833H41.6533L100.526 140.361L100.608 140.167L100.526 139.973L41.6533 0.5H158.901Z" stroke="black" stroke-opacity="0.2"/>
<path d="M158.901 0.5L217.855 140.166L158.901 279.833H41.6533L100.526 140.361L100.608 140.167L100.526 139.973L41.6533 0.5H158.901Z" stroke="black" stroke-opacity="0.2"/>
<path d="M297.333 140.167L256 0H297.333H338.667L380 140.167L338.667 280.333H297.333H256L297.333 140.167Z" fill="white" fill-opacity="0.06"/>
<path d="M338.293 0.5L379.479 140.166L338.294 279.833H256.669L297.812 140.308L297.854 140.167L297.812 140.025L256.669 0.5H338.293Z" stroke="black" stroke-opacity="0.2"/>
<path d="M338.293 0.5L379.479 140.166L338.294 279.833H256.669L297.812 140.308L297.854 140.167L297.812 140.025L256.669 0.5H338.293Z" stroke="black" stroke-opacity="0.2"/>
<path d="M338.293 0.5L379.479 140.166L338.294 279.833H256.669L297.812 140.308L297.854 140.167L297.812 140.025L256.669 0.5H338.293Z" stroke="black" stroke-opacity="0.2"/>
</svg>
