<svg width="21" height="21" viewBox="0 0 21 21" fill="none" xmlns="http://www.w3.org/2000/svg">
<path d="M16.1692 3.47213C15.5543 3.50727 14.9374 3.45793 14.3359 3.32546C13.6103 3.077 12.9316 2.70825 12.3284 2.23463C11.8123 1.86878 11.3222 1.46754 10.8617 1.0338C10.6665 0.851435 10.4093 0.75 10.1421 0.75C9.87498 0.75 9.61779 0.851435 9.42255 1.0338C8.97427 1.45382 8.50299 1.8486 8.01088 2.2163C7.40387 2.69614 6.72272 3.07387 5.99422 3.33463C5.30905 3.48945 4.60519 3.54501 3.90422 3.49963C3.33025 3.47586 2.75801 3.42078 2.19005 3.33463C2.05126 3.31406 1.90975 3.32164 1.77396 3.35693C1.63817 3.39222 1.51087 3.4545 1.39966 3.54004C1.28845 3.62559 1.19561 3.73265 1.12667 3.85485C1.05773 3.97705 1.0141 4.11188 0.998385 4.2513C0.952551 4.6913 0.833385 5.83713 0.778385 7.1113C0.701307 8.38433 0.781354 9.66201 1.01672 10.9155C1.68042 12.9921 2.90111 14.8469 4.54588 16.278C5.85322 17.5111 7.27081 18.6219 8.78088 19.5963C9.18558 19.8742 9.66497 20.0229 10.1559 20.0229C10.6468 20.0229 11.1262 19.8742 11.5309 19.5963C12.9609 18.5965 14.2984 17.4706 15.5276 16.2321C17.076 14.7906 18.2228 12.971 18.8551 10.9521" stroke="#E0E9F4" stroke-width="1.5" stroke-linecap="round" stroke-linejoin="round"/>
<path d="M9.02832 9.45791L11.65 12.0796C11.6663 12.0974 11.6861 12.1116 11.7082 12.1213C11.7303 12.131 11.7542 12.136 11.7783 12.136C11.8025 12.136 11.8263 12.131 11.8484 12.1213C11.8705 12.1116 11.8903 12.0974 11.9067 12.0796L19.1117 4.87457" stroke="#E0E9F4" stroke-width="2" stroke-linecap="round" stroke-linejoin="round"/>
</svg>
